<svg id="baaa760b-538b-4318-b81e-3b8f701f667d" data-name="Capa 1" xmlns="http://www.w3.org/2000/svg" width="1920" height="1096" viewBox="0 0 1920 1096"><defs><style>.ac96fd9a-69a7-4271-913b-233b52ad0aa7{fill:#92ffb6;}.f91bc2d5-19cd-4d4d-9d97-9d86e7c40868{fill:none;}.eba72d74-203a-4e5c-b08a-651529e3c5af{fill:#6ca5c1;}.fb398cb6-b3ed-4cfd-a09a-5cbf84bcda1b{fill:#6eafaa;}.e367f076-576a-4b31-b468-cccef8b21f93{fill:#4486b7;}.e346b0b1-4ff2-41ef-a920-b973924f06e3,.fa965e88-953a-4e5f-99e6-ce328c490739{opacity:0.8;}.e88efa8a-fe18-4875-bafe-859fa7ce2d0e{fill:#6da35b;}.e5a14566-9df4-4580-bf9d-27e472b8add1{fill:#7d888e;}.e49872ec-d073-4c37-b897-da07ed41452a,.fa965e88-953a-4e5f-99e6-ce328c490739{fill:#575a5b;}.a22116dc-163c-4ced-9dbd-67396897f0f7,.a9083154-4fd1-4d1d-bcec-2d02378cadb1{fill:#9e5ca0;}.a2aecbab-18cb-450a-87b3-5191beaa0f35,.b53e4fb1-e885-4885-98ab-9aa4ff243f87,.e8cd76bc-7bab-4e56-aa8d-cc8eff4cf9a3{fill:#563056;}.a2aecbab-18cb-450a-87b3-5191beaa0f35{opacity:0.65;}.aa444bb8-9b46-4893-99ac-a089ff25bcb8,.e8cd76bc-7bab-4e56-aa8d-cc8eff4cf9a3{opacity:0.52;}.aa444bb8-9b46-4893-99ac-a089ff25bcb8{fill:#adadad;}.a22116dc-163c-4ced-9dbd-67396897f0f7{opacity:0.89;}.fc2a615d-41c2-4bb1-93ad-860166cae569{fill:#be85c1;opacity:0.73;}.a156ac69-b60f-4639-adc3-be08e13d3a8a{fill:#af7e69;}.a655e973-151c-4326-97bd-c03a784901d1,.fc4eb93d-fbfc-4548-911d-6ac8062a6de2{fill:#99bace;}.a655e973-151c-4326-97bd-c03a784901d1{opacity:0.32;}.fc4eb93d-fbfc-4548-911d-6ac8062a6de2{opacity:0.5;}.bcd6e97c-3c0f-49b6-8c45-d38e80497a65{opacity:0.57;}.a3b76055-8d60-45c5-ab88-516943592294,.a7239781-9ffc-4c44-aab5-26a78010bf4f{fill:#fff;}.a2ee5916-1ad6-44a7-8a73-34e6afcb514d{fill:#6fa57e;}.bfc2a7bd-e54c-4e31-8cc9-4d65ee1d72f5{opacity:0.43;}.a3b76055-8d60-45c5-ab88-516943592294,.f60c001a-614f-4455-b83d-16324c6c2cc2{opacity:0.05;}</style></defs><title>12312312</title><rect class="ac96fd9a-69a7-4271-913b-233b52ad0aa7" y="-110" width="1938" height="1119"/><path class="f91bc2d5-19cd-4d4d-9d97-9d86e7c40868" d="M1937,1,1,1,1937,1V1118H1"/><path class="eba72d74-203a-4e5c-b08a-651529e3c5af" d="M-19,275c28.592-29.9911,99.0507-103.8979,176-92,32.8224,5.075,63.4873,25.2453,92,44,65.1445,42.85,62.0951,65.756,96,79,67.1991,26.25,108.43-52.3055,210-58,96.2826-5.398,103.4033,62.7147,206,70,132.6652,9.42,159.0768-101.7461,282-90,112.752,10.7741,160.272,110.9691,241,82,42.5413-15.2658,49.1237-50.1872,91-56,53.5017-7.4265,72.09,52.5852,135,78,68.6786,27.7452,139.21-2.8339,248-50,162.0927-70.2756,191.7119-131.7065,251-117,90.533,22.4568,120.093,190.1613,125,218,29.9712,170.0367-16.8718,428.8013-229,576-143.1437,99.3293-235.0033,13.1713-649-2-321.35-11.7761-372.8,32.2954-883,28C2.5621,981.8812-66.6217,957.8373-116,901-255.1053,740.882-153.7613,416.3561-19,275Z"/><path class="fb398cb6-b3ed-4cfd-a09a-5cbf84bcda1b" d="M1795.6187,286.1128c-28.5919-29.9911-99.0507-103.8979-176-92-32.8224,5.075-63.4873,25.2453-92,44-65.1445,42.85-62.0951,65.756-96,79-67.1991,26.25-108.43-52.3055-210-58-96.2826-5.398-103.4032,62.7147-206,70-132.6652,9.42-159.0768-101.746-282-90-112.7519,10.7742-160.2719,110.9691-241,82-42.5412-15.2658-49.1236-50.1871-91-56-53.5017-7.4265-72.09,52.5852-135,78-68.6786,27.7452-139.21-2.8339-248-50-162.0926-70.2756-191.7119-131.7065-251-117-90.5329,22.4569-120.093,190.1613-125,218-29.9712,170.0368,16.8719,428.8014,229,576,143.1437,99.3294,235.0033,13.1713,649-2,321.35-11.7761,372.8,32.2954,883,28,370.438-3.1187,439.6217-27.1627,489-84C2031.724,751.9948,1930.38,427.4689,1795.6187,286.1128Z"/><path class="e367f076-576a-4b31-b468-cccef8b21f93" d="M-34.5,522s-52-189,206-156,352,72,526,23,167-66,300-27,406,119,532-8,279-55,295-14,104,5,113,76,1.5,703,1.5,703L-23,1151Z"/><path class="e367f076-576a-4b31-b468-cccef8b21f93" d="M-29.6786,520.6708c-10.5988-38.7767-3.3022-86.6937,25.688-115.8116,33.5657-33.7135,86.2879-38.9968,131.3392-37.5238,42.09,1.3762,84.106,8.8,125.6966,14.9661,37.7026,5.5893,75.3263,11.6835,112.9919,17.5121,58.048,8.9827,116.5789,17.681,175.462,17.3314,61.9271-.3676,121.5035-12.7738,180.7394-30.0307,32.5033-9.4691,64.6994-19.9741,97.2314-29.3379,20.5859-5.9253,41.54-11.32,63.0443-12.1629,50.5377-1.9817,100.6322,17.6379,148.4817,31.3321,57.9046,16.572,116.4253,31.4021,175.9556,40.8589,62.2,9.8809,126.3424,14.6954,188.837,4.6034,28.6734-4.63,56.8924-12.7737,82.9125-25.8165a212.9871,212.9871,0,0,0,35.1916-22.16c13.9469-10.8281,25.6716-24.057,39.2381-35.3284,51.4827-42.773,119.4481-61.8982,185.1345-46.3946,21.93,5.176,43.718,13.7779,61.9476,27.2329,6.0458,4.4623,12.0364,9.6586,16.3289,15.8844,4.5072,6.5371,6.4,13.7911,12.6873,19.178,15.1485,12.9786,37.9953,13.2578,56.565,17.2919,24.6907,5.3638,43.1848,17.4224,46.7619,44.1544,3.0425,22.7361,2.5732,46.2771,3.0416,69.1575.8352,40.7965,1.0846,81.6055,1.23,122.4094.3563,100.1048-.157,200.2133-.8783,300.3155q-.7224,100.275-1.833,200.547-.057,5.06-.116,10.12l5-5-52.6854.8593-142.7283,2.3279-210.9352,3.44-258.247,4.212-281.8913,4.5976-284.5177,4.64-266.1618,4.341-223.41,3.6438-161.8045,2.639-50.2657.82c-8.53.1391-17.59-.5754-26.0728.4252-1.0678.126-2.2016.0359-3.28.0535l5,5-3.89-212.7456-6.1949-338.8319L-29.5,522c-.1175-6.4273-10.1179-6.4481-10,0l3.89,212.7456,6.1949,338.8319L-28,1151a5.0712,5.0712,0,0,0,5,5l52.6854-.8593,142.7283-2.3279,210.9352-3.44,258.247-4.212,281.8913-4.5976,284.5177-4.64,266.1618-4.341,223.41-3.6438,161.8045-2.639c25.4366-.4149,50.91-.4665,76.3385-1.2451,1.0926-.0335,2.187-.0357,3.28-.0535a5.0848,5.0848,0,0,0,5-5q.8889-74.97,1.4749-149.9445,1.2641-150.59,1.4547-301.1873c-.0067-77.6208,1.1418-155.6245-2.9764-233.17-.6653-12.5274-1.2147-25.4848-6.0727-37.2118-8.8187-21.2882-28.9832-30.4884-50.3016-35.0181-17.2609-3.6676-45.0366-3.4108-56.0769-19.7523-4.111-6.085-6.2372-12.532-11.246-18.19-5.7576-6.5036-12.8012-11.94-20.0235-16.7142-43.09-28.4859-99.6817-36.2473-149.78-26.6577-34.9365,6.6873-67.6092,22.4158-95.7585,43.9953-14.2338,10.9118-26.2711,23.9767-39.8092,35.6317a198.9215,198.9215,0,0,1-36.09,24.5167c-55.694,29.7667-121.7207,34.8661-183.7248,31.9424-65.7282-3.0992-130.7547-15.8149-194.4471-31.825-54.9055-13.8014-108.7362-33.138-164.2056-44.4774-21.09-4.3114-42.5747-6.7437-64.0776-4.6214-22.4605,2.2168-44.2811,8.41-65.8349,14.8457-66.3063,19.7968-132.2105,43.2905-201.1942,51.8819-56.6926,7.0608-113.6278,3.8368-170.1348-3.3107-74.5708-9.4323-148.5779-23.0312-223.035-33.3215-60.62-8.3779-127.4687-18.9224-185.729,6.3728-30.8287,13.3851-54.3451,38.02-64.27,70.3071-6.7914,22.0923-7.34,45.9074-3.7876,68.6324a106.28,106.28,0,0,0,2.3249,11.6048C-37.6267,529.5294-27.9767,526.8974-29.6786,520.6708Z"/><g class="e346b0b1-4ff2-41ef-a920-b973924f06e3"><path class="e88efa8a-fe18-4875-bafe-859fa7ce2d0e" d="M931.5855,487.0775a.586.586,0,0,0-.3024.414c-.3136,1.76-1.729,11.4424,3.6191,18.38,15.6395,20.2879,23.0469,32.9335,45.4378,36.866,3.6759.6456,7.358,2.2713,11.506-.07a.5811.5811,0,0,1,.4735-.0493c.8614.2936,3.9474.5561,4.3149-10.5346a.5773.5773,0,0,1,.1177-.3345c.5847-.7593,3.2134-4.732,1.6225-13.057-.9552-4.9982-1.4917-5.1917-1.7841-4.294-.2275.6988,1.3864,1.0653,1.101.3881-1.7078-4.0507-.8747-7.7881-6.1068-18.9734-1.408-3.01-7.0339-8.8161-9.3207-12.3381a9.27,9.27,0,0,1,.7339,1.31C980.4636,483.9468,956.806,473.5932,931.5855,487.0775Z"/><path class="e5a14566-9df4-4580-bf9d-27e472b8add1" d="M974.2981,499.987S964.5445,514.23,959.4968,514.13c0,0-14.72-12.757-15.3544-19.1151,0,0,5.3405-7.9835,7.673-8.4292l6.5518-3.67A83.4238,83.4238,0,0,1,974.2981,499.987Z"/><polygon class="e49872ec-d073-4c37-b897-da07ed41452a" points="972.191 498.069 957.007 511.221 943.152 495.398 950.334 505.147 958.506 514.513 963.108 512.28 974.298 499.987 972.191 498.069"/><path class="a9083154-4fd1-4d1d-bcec-2d02378cadb1" d="M965.8327,498.7035l-3.5169,3.8634-4.2823,1.8822-9.1316-8.3126,3.742-6.2274s2.8459-3.8319,10.5412,2.5309C963.1851,492.44,967.017,495.2859,965.8327,498.7035Z"/><path class="a2aecbab-18cb-450a-87b3-5191beaa0f35" d="M948.9019,496.1365s6.3312-8.3662,10.9285-3.539l6.322,5.7548a6.0832,6.0832,0,0,0-2.6161-5.5926C960.4069,490.5532,954.31,482.4344,948.9019,496.1365Z"/><path class="e8cd76bc-7bab-4e56-aa8d-cc8eff4cf9a3" d="M948.9019,496.1365l9.1316,8.3126,3.9626-1.5309,4.1563-4.5659S958.0966,505.7909,948.9019,496.1365Z"/><path class="aa444bb8-9b46-4893-99ac-a089ff25bcb8" d="M961.1361,498.9241s-.189-4.0256-5.9707-5.4351l1.5883-1.7448S965.8327,498.7035,961.1361,498.9241Z"/><path class="e5a14566-9df4-4580-bf9d-27e472b8add1" d="M980.0751,508.4571l-2.7829,5.1737s-9.078,7.15-6.0477,14.4046l18.079,5.539s6.8038,1.6977,8.47-5.7771,6.0745-6.6731-5.39-14.54Z"/><path class="fa965e88-953a-4e5f-99e6-ce328c490739" d="M980.0751,508.4571l5.7451,2.2369-4.9528,7.4758s.4227,8.0524-5.3363,11.1789l-4.2866-1.3133s-1.4317-9.01,5.4083-13.7021Z"/><path class="b53e4fb1-e885-4885-98ab-9aa4ff243f87" d="M986.46,515.5538s11.1806,1.8284,9.8341,8.9519-5.4351,5.9707-8.8528,4.7864a10.5054,10.5054,0,0,1-4.854-3.1341S981.1509,524.2082,986.46,515.5538Z"/><path class="a22116dc-163c-4ced-9dbd-67396897f0f7" d="M984.5366,518.9409s.487-5.3369,9.97,3.2953c0,0-1.3465,7.1235-5.7548,6.3219s-5.5353-3.112-5.9759-5.44Z"/><path class="fc2a615d-41c2-4bb1-93ad-860166cae569" d="M982.43,522.8033s8.732-3.3662,10.3367,3.752l1.74-4.3191s-8.5307-6.15-9.2162-4.6914Z"/><path class="a156ac69-b60f-4639-adc3-be08e13d3a8a" d="M976.0763,516.3776a50.271,50.271,0,0,1-11.4956-8.5377l-3.5169,3.8634s5.777,8.47,10.5366,9.5913C971.6,521.2946,974.0589,523.5326,976.0763,516.3776Z"/><path class="a156ac69-b60f-4639-adc3-be08e13d3a8a" d="M944.4306,493.9931s-8.686-5.98-4.8809-10.8656,10.3521-1.4947,10.3521-1.4947l-2.6522.7969s-3.58,2.5216,2.2964,5.9439Z"/></g><circle class="a655e973-151c-4326-97bd-c03a784901d1" cx="896" cy="432" r="8"/><circle class="a655e973-151c-4326-97bd-c03a784901d1" cx="979.629" cy="471.8226" r="4.8226"/><circle class="fc4eb93d-fbfc-4548-911d-6ac8062a6de2" cx="940.8065" cy="532.6452" r="4.8226"/><g class="bcd6e97c-3c0f-49b6-8c45-d38e80497a65"><path class="a7239781-9ffc-4c44-aab5-26a78010bf4f" d="M679.5254,715.4033a.9864.9864,0,0,0-.31.7754h-.7441l-.31-9.0527.1241-.1856h.5581a11.1465,11.1465,0,0,0,3.0073,4.2774,12.1293,12.1293,0,0,0,3.9985,2.3252,11.2031,11.2031,0,0,0,4.2783.5888,9.5052,9.5052,0,0,0,3.9371-1.0537,7.6058,7.6058,0,0,0,2.852-2.5732,7.5182,7.5182,0,0,0-.3721-8.3389,16.3766,16.3766,0,0,0-3.6269-3.2549,49.1065,49.1065,0,0,0-4.7432-2.79,32.8774,32.8774,0,0,1-4.7431-2.9756,15.5629,15.5629,0,0,1-3.627-3.8447,9.7225,9.7225,0,0,1-1.457-5.4863,8.9192,8.9192,0,0,1,1.0229-4.31,10.7925,10.7925,0,0,1,2.6973-3.2549,11.998,11.998,0,0,1,3.813-2.0771,13.7517,13.7517,0,0,1,4.3711-.7129,15.3748,15.3748,0,0,1,2.5727.2168,21.3153,21.3153,0,0,1,2.5112.59,5.2934,5.2934,0,0,0,.6822.2168q.5574.1553,1.209.3408t1.2089.3408a5.62,5.62,0,0,0,.62.1553,1.2193,1.2193,0,0,0,1.1782-1.1777h.6821q.2469,2.294.4649,4.7119a32.876,32.876,0,0,1,.0927,4.7119h-.6816a9.6564,9.6564,0,0,0-2.418-3.9062,11.413,11.413,0,0,0-3.5649-2.3555,10.555,10.555,0,0,0-4.061-.8067,9.2739,9.2739,0,0,0-3.751.7442,6.7031,6.7031,0,0,0-2.79,2.2324,6.0357,6.0357,0,0,0-1.0849,3.6572,4.9671,4.9671,0,0,0,.8989,2.9453,12.5171,12.5171,0,0,0,2.1387,2.3252,33.6551,33.6551,0,0,0,3.41,2.418q1.7975,1.1163,3.6582,2.1084l-.434-.1865a43.8781,43.8781,0,0,1,3.937,2.2939,19.5252,19.5252,0,0,1,3.3789,2.79,12.1627,12.1627,0,0,1,2.3559,3.5029,10.9722,10.9722,0,0,1,.8682,4.4951,9.453,9.453,0,0,1-1.1782,4.7432,11.3587,11.3587,0,0,1-3.0689,3.5029,13.9894,13.9894,0,0,1-4.247,2.17,15.7682,15.7682,0,0,1-4.774.7442,19.4281,19.4281,0,0,1-4.96-.62q-2.3569-.62-4.836-1.3018A1.3676,1.3676,0,0,0,679.5254,715.4033Z"/><path class="a7239781-9ffc-4c44-aab5-26a78010bf4f" d="M730.9229,716.4883l-.5582-.124-.062-5.3936a15.44,15.44,0,0,1-3.999,4.34,9.53,9.53,0,0,1-5.6108,1.55q-4.5264,0-6.7271-2.7588a10.9306,10.9306,0,0,1-2.2012-7.0371v-17.67q0-1.4253-.4648-1.7978a2.8435,2.8435,0,0,0-1.7051-.3721v-.4961h6.7578l-.124,19.7158a7.9524,7.9524,0,0,0,.9922,4.2159,5.6243,5.6243,0,0,0,2.542,2.2939,6.42,6.42,0,0,0,3.3169.4961,8.0065,8.0065,0,0,0,3.3174-1.1162,7.6724,7.6724,0,0,0,2.5727-2.5723,7.179,7.179,0,0,0,1.023-3.875V689.3945q0-1.55-.6509-1.86a4.7457,4.7457,0,0,0-1.9531-.31v-.4961h7.1919l-.1241,25.9776q0,1.2406.4654,1.4882a3.41,3.41,0,0,0,1.519.2481v.4961Z"/><path class="a7239781-9ffc-4c44-aab5-26a78010bf4f" d="M779.7773,716.24v-.4961q1.6114,0,2.0152-.4648a3.6669,3.6669,0,0,0,.4028-2.1387V696.5244a11.7592,11.7592,0,0,0-.31-2.7285,7.1913,7.1913,0,0,0-.961-2.2939,4.6971,4.6971,0,0,0-1.7671-1.5811,5.6544,5.6544,0,0,0-2.666-.5889,7.1426,7.1426,0,0,0-4.34,1.3643,7.845,7.845,0,0,0-2.7281,3.72,9.67,9.67,0,0,0-.31,1.0235,4.6873,4.6873,0,0,0-.1861,1.0224v16.8643a7.7774,7.7774,0,0,0,.0933,1.3642,1.2722,1.2722,0,0,0,.3721.7442,1.2415,1.2415,0,0,0,.7749.2783q.4951.0323,1.3017.0312v.4961h-9.4238v-.4961q1.6113,0,2.0151-.4648a3.6659,3.6659,0,0,0,.4029-2.1387V696.5244a13.7914,13.7914,0,0,0-.2481-2.6348,6.977,6.977,0,0,0-.8676-2.2939,4.7337,4.7337,0,0,0-1.6744-1.6436,5.0658,5.0658,0,0,0-2.604-.62,7.48,7.48,0,0,0-4.4951,1.3643,8.1471,8.1471,0,0,0-2.8208,3.72q-.1253.312-.3721,1.0235a3.637,3.637,0,0,0-.248,1.0224q-.0622,4.2789-.0308,8.4326t.0308,8.4317a7.7774,7.7774,0,0,0,.0933,1.3642,1.2141,1.2141,0,0,0,.3408.7129,1.3161,1.3161,0,0,0,.7129.2793,10.216,10.216,0,0,0,1.271.0615v.4961H744.19v-.4961a3.1565,3.1565,0,0,0,2.0459-.4336,3.4383,3.4383,0,0,0,.434-2.17V690.51a4.6436,4.6436,0,0,0-.124-1.333.5686.5686,0,0,0-.3721-.4024,1.5778,1.5778,0,0,0-.6821.0313,2.158,2.158,0,0,1-1.0537-.0938v-.5576l5.332-1.86,1.1778.0625v5.4561a16.773,16.773,0,0,1,4.185-4.1855,9.8531,9.8531,0,0,1,5.6734-1.5811,6.9265,6.9265,0,0,1,2.5107.4658,8.03,8.03,0,0,1,2.17,1.2393,7.3006,7.3006,0,0,1,1.6431,1.8916,7.1863,7.1863,0,0,1,.93,2.4179,9.8631,9.8631,0,0,1,2.666-3.3486,12.3123,12.3123,0,0,1,3.7817-2.1387,10.84,10.84,0,0,1,4.2163-.5888,7.95,7.95,0,0,1,3.937,1.27,8.3712,8.3712,0,0,1,2.8829,3.3789A12.9062,12.9062,0,0,1,786.66,696.4v16.9258a11.466,11.466,0,0,0,.062,1.3642,1.0868,1.0868,0,0,0,.31.7129,1.3194,1.3194,0,0,0,.7133.2793,10.206,10.206,0,0,0,1.271.0615v.4961Z"/><path class="a7239781-9ffc-4c44-aab5-26a78010bf4f" d="M833.0347,716.24v-.4961q1.6113,0,2.0151-.4648a3.6661,3.6661,0,0,0,.4028-2.1387V696.5244a11.7592,11.7592,0,0,0-.31-2.7285,7.1913,7.1913,0,0,0-.961-2.2939,4.6968,4.6968,0,0,0-1.767-1.5811,5.6549,5.6549,0,0,0-2.6661-.5889,7.1426,7.1426,0,0,0-4.34,1.3643,7.8442,7.8442,0,0,0-2.728,3.72,9.6641,9.6641,0,0,0-.31,1.0235,4.6854,4.6854,0,0,0-.186,1.0224v16.8643a7.7791,7.7791,0,0,0,.0932,1.3642,1.2728,1.2728,0,0,0,.3721.7442,1.2417,1.2417,0,0,0,.7749.2783q.4951.0323,1.3018.0312v.4961h-9.4239v-.4961q1.6114,0,2.0152-.4648a3.6669,3.6669,0,0,0,.4028-2.1387V696.5244a13.8,13.8,0,0,0-.248-2.6348,6.9794,6.9794,0,0,0-.8677-2.2939,4.7342,4.7342,0,0,0-1.6743-1.6436,5.0663,5.0663,0,0,0-2.604-.62,7.48,7.48,0,0,0-4.4952,1.3643,8.1478,8.1478,0,0,0-2.8208,3.72q-.1253.312-.372,1.0235a3.6346,3.6346,0,0,0-.2481,1.0224q-.0622,4.2789-.0307,8.4326.03,4.1544.0307,8.4317a7.7774,7.7774,0,0,0,.0933,1.3642,1.2141,1.2141,0,0,0,.3408.7129,1.3164,1.3164,0,0,0,.7129.2793,10.2171,10.2171,0,0,0,1.271.0615v.4961h-9.3618v-.4961a3.1565,3.1565,0,0,0,2.0459-.4336,3.4374,3.4374,0,0,0,.4341-2.17V690.51a4.6388,4.6388,0,0,0-.1241-1.333.5686.5686,0,0,0-.372-.4024,1.5782,1.5782,0,0,0-.6822.0313,2.158,2.158,0,0,1-1.0537-.0938v-.5576l5.3321-1.86,1.1777.0625v5.4561a16.773,16.773,0,0,1,4.185-4.1855,9.8534,9.8534,0,0,1,5.6734-1.5811,6.9261,6.9261,0,0,1,2.5107.4658,8.032,8.032,0,0,1,2.17,1.2393,7.3021,7.3021,0,0,1,1.643,1.8916,7.1863,7.1863,0,0,1,.93,2.4179,9.8631,9.8631,0,0,1,2.666-3.3486,12.3123,12.3123,0,0,1,3.7817-2.1387,10.84,10.84,0,0,1,4.2164-.5888,7.95,7.95,0,0,1,3.937,1.27,8.3717,8.3717,0,0,1,2.8828,3.3789A12.9062,12.9062,0,0,1,839.917,696.4v16.9258a11.466,11.466,0,0,0,.062,1.3642,1.0868,1.0868,0,0,0,.31.7129,1.32,1.32,0,0,0,.7134.2793,10.2042,10.2042,0,0,0,1.2709.0615v.4961Z"/><path class="a7239781-9ffc-4c44-aab5-26a78010bf4f" d="M874.9766,710.0713a13.73,13.73,0,0,1-5.2393,5.1455,14.3614,14.3614,0,0,1-6.7891,1.7363,13.565,13.565,0,0,1-12.0278-6.82,16.487,16.487,0,0,1-2.0771-8.6484,16.6556,16.6556,0,0,1,2.0771-8.68,13.6778,13.6778,0,0,1,5.2388-5.1777,13.8857,13.8857,0,0,1,18.8174,5.2392,16.5376,16.5376,0,0,1,2.0766,8.6182A16.3648,16.3648,0,0,1,874.9766,710.0713Zm-4.2471-15.624a11.6614,11.6614,0,0,0-3.5342-4.4024,8.3663,8.3663,0,0,0-4.5259-1.6426,7.0914,7.0914,0,0,0-4.4638,1.2706,9.9348,9.9348,0,0,0-3.3482,4.3408,17.9326,17.9326,0,0,0-1.24,7.4707,16.1546,16.1546,0,0,0,1.519,7.0986,11.6069,11.6069,0,0,0,3.565,4.3711,8.2667,8.2667,0,0,0,4.5263,1.5811,7.1368,7.1368,0,0,0,4.4639-1.3331,10.38,10.38,0,0,0,3.3789-4.34,16.6515,16.6515,0,0,0,1.209-7.3779A16.947,16.947,0,0,0,870.73,694.4473Z"/><path class="a7239781-9ffc-4c44-aab5-26a78010bf4f" d="M901.9155,716.24v-.4961q1.6113,0,1.9219-.4961a4.6018,4.6018,0,0,0,.31-2.1074V696.5244a11.7591,11.7591,0,0,0-.31-2.7285,6.47,6.47,0,0,0-1.0229-2.2939,5.2349,5.2349,0,0,0-1.8291-1.5811,5.6549,5.6549,0,0,0-2.6661-.5889,7.1513,7.1513,0,0,0-4.4946,1.4571,8.3342,8.3342,0,0,0-2.7593,3.8134,7.3913,7.3913,0,0,0-.3408.93,3.7953,3.7953,0,0,0-.2173.93v16.8643q0,1.0547.062,1.7363t1.3023.6816v.4961h-7.9361v-.4961q1.5492,0,1.8291-.5273a5.0813,5.0813,0,0,0,.2789-2.0762V690.51a4.6388,4.6388,0,0,0-.1241-1.333q-.1245-.34-.372-.3711a2.18,2.18,0,0,0-.6817.0615,2.1458,2.1458,0,0,1-1.0542-.0928v-.62l5.3321-1.86,1.1777.0625v5.4561a16.3616,16.3616,0,0,1,4.061-4.1855,9.5606,9.5606,0,0,1,5.6114-1.5811,8.5913,8.5913,0,0,1,3.937.8369,7.3141,7.3141,0,0,1,2.666,2.2637,10.0268,10.0268,0,0,1,1.519,3.2861,15.3666,15.3666,0,0,1,.4956,3.9678v16.9258a3.7432,3.7432,0,0,0,.3721,1.6426,1.4274,1.4274,0,0,0,1.4263.7753v.4961Z"/><path class="a7239781-9ffc-4c44-aab5-26a78010bf4f" d="M921.5684,700.0586a21.3954,21.3954,0,0,0,.6508,4.7422,13.8508,13.8508,0,0,0,1.7979,4.1855,9.0953,9.0953,0,0,0,3.1621,2.9756,9.4167,9.4167,0,0,0,4.7432,1.1162,18.2207,18.2207,0,0,0,2.5107-.1855,15.0535,15.0535,0,0,0,2.5732-.5889,9.6376,9.6376,0,0,0,2.3248-1.1162,5.7491,5.7491,0,0,0,1.767-1.8291l.62.93a11.4378,11.4378,0,0,1-4.8672,4.9287,14.3991,14.3991,0,0,1-6.7891,1.6436,12.5047,12.5047,0,0,1-5.6416-1.1778,10.83,10.83,0,0,1-3.875-3.1933,13.4147,13.4147,0,0,1-2.2324-4.712,22.0983,22.0983,0,0,1-.7129-5.6728,22.4549,22.4549,0,0,1,.7749-5.8594,15.881,15.881,0,0,1,2.3872-5.1455,12.529,12.529,0,0,1,4.061-3.6582,11.5216,11.5216,0,0,1,5.7969-1.3955,10.7,10.7,0,0,1,5.1153,1.1162,9.895,9.895,0,0,1,3.41,2.9766,13.6243,13.6243,0,0,1,2.0152,4.2773,28.45,28.45,0,0,1,.93,5.0225l.062.62Zm14.663-5.6426a10.4793,10.4793,0,0,0-1.1782-2.82,6.1765,6.1765,0,0,0-2.0151-2.0469,5.7591,5.7591,0,0,0-3.1-.7744,7.5549,7.5549,0,0,0-3.41.7129,7.3179,7.3179,0,0,0-2.4179,1.9219,9.6689,9.6689,0,0,0-1.5811,2.79,15.8127,15.8127,0,0,0-.8369,3.3174h15.0659A18.1667,18.1667,0,0,0,936.2314,694.416Z"/><path class="a7239781-9ffc-4c44-aab5-26a78010bf4f" d="M956.97,716.24h-9.92v-.4961a2.9934,2.9934,0,0,0,2.0459-.4648,3.4482,3.4482,0,0,0,.4341-2.1387V690.51a5.3857,5.3857,0,0,0-.124-1.3946c-.083-.2685-.2168-.4238-.4029-.4648a2.7452,2.7452,0,0,0-.7441-.0313,3.5621,3.5621,0,0,1-1.147-.1552v-.31l5.5181-1.86,1.1777.0625v6.2618a19.4408,19.4408,0,0,1,1.333-2.3555,12.38,12.38,0,0,1,1.7364-2.1084,8.38,8.38,0,0,1,2.17-1.5195,6.0915,6.0915,0,0,1,2.6972-.5889,4.0017,4.0017,0,0,1,1.8282.4961,1.9115,1.9115,0,0,1,1.0859,1.55c0,.208-.0117.4766-.0312.8066a3.9846,3.9846,0,0,1-.7129,1.9834,1.71,1.71,0,0,1-.8067.62.8376.8376,0,0,1-.9609-.2168,5.9794,5.9794,0,0,1-.65-.961,9.0214,9.0214,0,0,0-.7134-1.0849,1.2978,1.2978,0,0,0-1.0849-.5274,2.5933,2.5933,0,0,0-1.3331.4346A9.1422,9.1422,0,0,0,956.97,690.2a12.2986,12.2986,0,0,0-1.24,1.3018,11.9572,11.9572,0,0,0-.8682,1.1787,4.9326,4.9326,0,0,0-.8681,2.79v17.8555a5.0255,5.0255,0,0,0,.1552,1.4258,1.2274,1.2274,0,0,0,.4961.7128,1.8261,1.8261,0,0,0,.8989.2481q.5582.0323,1.4258.0312Z"/><path class="a7239781-9ffc-4c44-aab5-26a78010bf4f" d="M1004.3369,716.24v-.4961q1.6113,0,1.9219-.4961a4.6108,4.6108,0,0,0,.31-2.1074V696.5244a11.7863,11.7863,0,0,0-.31-2.7285,6.47,6.47,0,0,0-1.0225-2.2939,5.2459,5.2459,0,0,0-1.83-1.5811,5.6523,5.6523,0,0,0-2.6661-.5889,7.15,7.15,0,0,0-4.4941,1.4571,8.3387,8.3387,0,0,0-2.76,3.8134,7.5015,7.5015,0,0,0-.34.93,3.7557,3.7557,0,0,0-.2178.93v16.8643q0,1.0547.0615,1.7363t1.3028.6816v.4961h-7.9356v-.4961q1.5483,0,1.8281-.5273a5.0705,5.0705,0,0,0,.2793-2.0762V690.51a4.625,4.625,0,0,0-.124-1.333q-.1245-.34-.372-.3711a2.18,2.18,0,0,0-.6817.0615,2.1481,2.1481,0,0,1-1.0547-.0928v-.62l5.3321-1.86,1.1777.0625v5.4561a16.38,16.38,0,0,1,4.0615-4.1855,9.5627,9.5627,0,0,1,5.6113-1.5811,8.5893,8.5893,0,0,1,3.9366.8369,7.3027,7.3027,0,0,1,2.666,2.2637,10.0378,10.0378,0,0,1,1.5195,3.2861,15.3664,15.3664,0,0,1,.4961,3.9678v16.9258a3.7423,3.7423,0,0,0,.3711,1.6426,1.4271,1.4271,0,0,0,1.4258.7753v.4961Z"/><path class="a7239781-9ffc-4c44-aab5-26a78010bf4f" d="M1046.0928,710.0713a13.7265,13.7265,0,0,1-5.2393,5.1455,14.3628,14.3628,0,0,1-6.789,1.7363,13.5665,13.5665,0,0,1-12.0284-6.82,16.4917,16.4917,0,0,1-2.0761-8.6484,16.66,16.66,0,0,1,2.0761-8.68,13.6858,13.6858,0,0,1,5.2393-5.1777,13.8857,13.8857,0,0,1,18.8174,5.2392,16.5415,16.5415,0,0,1,2.0771,8.6182A16.3686,16.3686,0,0,1,1046.0928,710.0713Zm-4.2471-15.624a11.6614,11.6614,0,0,0-3.5342-4.4024,8.365,8.365,0,0,0-4.5263-1.6426,7.0942,7.0942,0,0,0-4.4639,1.2706,9.9413,9.9413,0,0,0-3.3477,4.3408,17.9407,17.9407,0,0,0-1.24,7.4707,16.1544,16.1544,0,0,0,1.5195,7.0986,11.606,11.606,0,0,0,3.5645,4.3711,8.2681,8.2681,0,0,0,4.5264,1.5811,7.1374,7.1374,0,0,0,4.4638-1.3331,10.38,10.38,0,0,0,3.3789-4.34,16.6515,16.6515,0,0,0,1.209-7.3779A16.9391,16.9391,0,0,0,1041.8457,694.4473Z"/><path class="a7239781-9ffc-4c44-aab5-26a78010bf4f" d="M1067.2656,715.2168a9.1189,9.1189,0,0,1-1.581.8994,8.5254,8.5254,0,0,1-1.7364.5576,8.1584,8.1584,0,0,1-1.6425.1866,6.4848,6.4848,0,0,1-3.1934-.6817,5.0265,5.0265,0,0,1-1.8906-1.8291,7.5123,7.5123,0,0,1-.9307-2.666,19.8461,19.8461,0,0,1-.248-3.1934V688.34h-4.6494v-1.3017l4.4638-.31a12.6246,12.6246,0,0,0,1.5186-3.7822,26.1908,26.1908,0,0,1,1.209-3.9063,2.0808,2.0808,0,0,0,.5586-.248,4.2671,4.2671,0,0,1,.62-.31.8277.8277,0,0,1,.5263-.0625c.1446.042.2178.1865.2178.4346v7.874h6.7578V688.34h-6.7578v20.15a12.6452,12.6452,0,0,0,.1543,1.8907,6.8674,6.8674,0,0,0,.5586,1.8916,4.082,4.082,0,0,0,1.1152,1.457,2.7776,2.7776,0,0,0,1.8291.5889,8.4345,8.4345,0,0,0,1.9219-.2168,5.7318,5.7318,0,0,0,1.7988-.7754l.4961.6816A3.597,3.597,0,0,1,1067.2656,715.2168Z"/><path class="a7239781-9ffc-4c44-aab5-26a78010bf4f" d="M1106.3252,675.8779a4.59,4.59,0,0,1-.7129-.9609q-.3412-.5889-.7129-1.1162a4.9237,4.9237,0,0,0-.8066-.8985,1.481,1.481,0,0,0-.9922-.372,2.9126,2.9126,0,0,0-2.1074.7754,5.1355,5.1355,0,0,0-1.24,1.9218,10.3493,10.3493,0,0,0-.5888,2.48,20.8482,20.8482,0,0,0-.1553,2.3868v6.6347h7.44v1.3633h-7.44v25.2344a10.6419,10.6419,0,0,0,.0625,1.333,1.3161,1.3161,0,0,0,.2783.7129,1.0518,1.0518,0,0,0,.6826.31,10.2081,10.2081,0,0,0,1.27.0615v.4961h-9.7334v-.4961a13.4733,13.4733,0,0,0,1.4258-.0615,1.85,1.85,0,0,0,.8994-.31,1.4071,1.4071,0,0,0,.4951-.7744,5.3807,5.3807,0,0,0,.1553-1.4571V688.0918h-5.7656v-1.3633h5.7656v-3.2246a18.3613,18.3613,0,0,1,.5586-4.5879,10.6219,10.6219,0,0,1,1.7354-3.751,8.34,8.34,0,0,1,3.0693-2.5107,10.2343,10.2343,0,0,1,4.5566-.93,10.0519,10.0519,0,0,1,1.3018.124,9.0649,9.0649,0,0,1,1.6748.4024,5.8463,5.8463,0,0,1,1.4258.7129,1.3166,1.3166,0,0,1,.62,1.1162,2.0745,2.0745,0,0,1-.3408,1.1474,2.4977,2.4977,0,0,1-.8067.8057,1.5294,1.5294,0,0,1-.9921.2168,1.443,1.443,0,0,1-.961-.62Z"/><path class="a7239781-9ffc-4c44-aab5-26a78010bf4f" d="M1135.0625,710.0713a13.7258,13.7258,0,0,1-5.2393,5.1455,14.3628,14.3628,0,0,1-6.789,1.7363,13.5662,13.5662,0,0,1-12.0283-6.82,16.4907,16.4907,0,0,1-2.0762-8.6484,16.66,16.66,0,0,1,2.0762-8.68,13.6849,13.6849,0,0,1,5.2392-5.1777,13.8857,13.8857,0,0,1,18.8174,5.2392,16.5415,16.5415,0,0,1,2.0771,8.6182A16.3686,16.3686,0,0,1,1135.0625,710.0713Zm-4.2471-15.624a11.6612,11.6612,0,0,0-3.5341-4.4024,8.3656,8.3656,0,0,0-4.5264-1.6426,7.0945,7.0945,0,0,0-4.4639,1.2706,9.94,9.94,0,0,0-3.3476,4.3408,17.9389,17.9389,0,0,0-1.24,7.4707,16.153,16.153,0,0,0,1.52,7.0986,11.6058,11.6058,0,0,0,3.5644,4.3711,8.2684,8.2684,0,0,0,4.5264,1.5811,7.1374,7.1374,0,0,0,4.4638-1.3331,10.3806,10.3806,0,0,0,3.379-4.34,16.6516,16.6516,0,0,0,1.2089-7.3779A16.9391,16.9391,0,0,0,1130.8154,694.4473Z"/><path class="a7239781-9ffc-4c44-aab5-26a78010bf4f" d="M1164.0469,716.4883l-.5576-.124-.0616-5.3936a15.4689,15.4689,0,0,1-3.999,4.34,9.5312,9.5312,0,0,1-5.6113,1.55q-4.5264,0-6.7276-2.7588a10.9359,10.9359,0,0,1-2.2-7.0371v-17.67q0-1.4253-.4658-1.7978a2.8386,2.8386,0,0,0-1.7041-.3721v-.4961h6.7578l-.124,19.7158a7.9478,7.9478,0,0,0,.9922,4.2159,5.62,5.62,0,0,0,2.542,2.2939,6.4178,6.4178,0,0,0,3.3164.4961,8.0113,8.0113,0,0,0,3.3174-1.1162,7.6782,7.6782,0,0,0,2.5732-2.5723,7.1831,7.1831,0,0,0,1.0225-3.875V689.3945q0-1.55-.6514-1.86a4.7416,4.7416,0,0,0-1.9521-.31v-.4961h7.1914l-.124,25.9776q0,1.2406.4648,1.4882a3.4157,3.4157,0,0,0,1.5195.2481v.4961Z"/><path class="a7239781-9ffc-4c44-aab5-26a78010bf4f" d="M1195.3555,716.24v-.4961q1.6128,0,1.9228-.4961a4.6094,4.6094,0,0,0,.31-2.1074V696.5244a11.7809,11.7809,0,0,0-.31-2.7285,6.4887,6.4887,0,0,0-1.0234-2.2939,5.2349,5.2349,0,0,0-1.8291-1.5811,5.6547,5.6547,0,0,0-2.666-.5889,7.1548,7.1548,0,0,0-4.4952,1.4571,8.3366,8.3366,0,0,0-2.7587,3.8134,7.47,7.47,0,0,0-.3409.93,3.7863,3.7863,0,0,0-.2168.93v16.8643q0,1.0547.0616,1.7363t1.3017.6816v.4961h-7.9355v-.4961q1.5483,0,1.8291-.5273a5.09,5.09,0,0,0,.2793-2.0762V690.51a4.6623,4.6623,0,0,0-.124-1.333q-.126-.34-.3721-.3711a2.1858,2.1858,0,0,0-.6826.0615,2.1448,2.1448,0,0,1-1.0537-.0928v-.62l5.332-1.86,1.1777.0625v5.4561a16.35,16.35,0,0,1,4.0615-4.1855,9.5576,9.5576,0,0,1,5.61-1.5811,8.5906,8.5906,0,0,1,3.9375.8369,7.3182,7.3182,0,0,1,2.666,2.2637,10.016,10.016,0,0,1,1.5186,3.2861,15.3274,15.3274,0,0,1,.4961,3.9678v16.9258a3.7431,3.7431,0,0,0,.372,1.6426,1.4272,1.4272,0,0,0,1.4258.7753v.4961Z"/><path class="a7239781-9ffc-4c44-aab5-26a78010bf4f" d="M1232.1211,716.55v-4.5254a9.7169,9.7169,0,0,1-8.6182,4.836,12.3776,12.3776,0,0,1-5.7041-1.209,10.7218,10.7218,0,0,1-3.8437-3.2549,14.0611,14.0611,0,0,1-2.2012-4.7744,22.4535,22.4535,0,0,1-.7129-5.7041,22.0987,22.0987,0,0,1,.7754-5.8282,15.5466,15.5466,0,0,1,2.3867-5.0839,12.37,12.37,0,0,1,4.0606-3.5957,11.6084,11.6084,0,0,1,5.7353-1.3643,9.29,9.29,0,0,1,8.1221,4.2783v-13.95q0-.4951-.0313-1.1465a.7687.7687,0,0,0-.7128-.7754,3.0708,3.0708,0,0,0-.7442-.0312,2.2256,2.2256,0,0,1-.8057-.0928v-.62q.4336-.123,1.5186-.4023t2.2637-.5586q1.1763-.2784,2.9756-.65v40.5478q0,1.2408.6513,1.4258a5.2294,5.2294,0,0,0,1.7051.124v.4961Zm-.0625-18.29a11.5016,11.5016,0,0,0-1.209-5.4864,8.5494,8.5494,0,0,0-3.0371-3.3789,7.0259,7.0259,0,0,0-7.874.31,9.5438,9.5438,0,0,0-3.0381,3.999,16.6263,16.6263,0,0,0-1.209,6.7891,18.6962,18.6962,0,0,0,1.209,7.2539,10.7034,10.7034,0,0,0,3.0381,4.31,7.2966,7.2966,0,0,0,7.874.93,7.53,7.53,0,0,0,3.0371-2.79,8.3943,8.3943,0,0,0,1.209-4.6191Z"/><path class="a7239781-9ffc-4c44-aab5-26a78010bf4f" d="M1269.94,715.8682a3.1859,3.1859,0,0,1-4.0927,0,3.0337,3.0337,0,0,1,0-4.3711,3.2934,3.2934,0,0,1,4.0927,0,3.0337,3.0337,0,0,1,0,4.3711Z"/><path class="a7239781-9ffc-4c44-aab5-26a78010bf4f" d="M1286.1836,715.8682a3.186,3.186,0,0,1-4.0928,0,3.0337,3.0337,0,0,1,0-4.3711,3.2936,3.2936,0,0,1,4.0928,0,3.0337,3.0337,0,0,1,0,4.3711Z"/><path class="a7239781-9ffc-4c44-aab5-26a78010bf4f" d="M1302.4268,715.8682a3.186,3.186,0,0,1-4.0928,0,3.0337,3.0337,0,0,1,0-4.3711,3.2936,3.2936,0,0,1,4.0928,0,3.0339,3.0339,0,0,1,0,4.3711Z"/></g><path class="e367f076-576a-4b31-b468-cccef8b21f93" d="M1027.9393,527.9005c6.4345,0,6.4452-10,0-10-6.4345,0-6.4452,10,0,10Z"/><path class="e367f076-576a-4b31-b468-cccef8b21f93" d="M1049.0057,487.6477c16.0005.1137,30.2862,6.9469,41.0048,18.72,9.8206,10.7871,18.8082,25.35,23.3038,39.25,2,6.1829,4.7163,17.9418-1.6289,22.6289-4.9538,3.6592-13.9089,2.1778-19.4925,1.0984a61.8711,61.8711,0,0,1-35.725-21.1905c-4.1454-4.9327-11.1877,2.1725-7.071,7.0711a71.0057,71.0057,0,0,0,33.3755,22.061c11.1986,3.4552,28.8738,6.4579,37.6357-3.602,9.7591-11.2047,3.8955-29.4233-1.682-41.0941-6.2-12.9732-14.1643-26.0853-24.4649-36.2217a64.798,64.798,0,0,0-45.2555-18.7216c-6.4361-.0457-6.4428,9.9542,0,10Z"/><path class="a2ee5916-1ad6-44a7-8a73-34e6afcb514d" d="M922.9639,522.6517c6.4345,0,6.4452-10,0-10-6.4345,0-6.4452,10,0,10Z"/><g class="bfc2a7bd-e54c-4e31-8cc9-4d65ee1d72f5"><path class="a2ee5916-1ad6-44a7-8a73-34e6afcb514d" d="M1017.4418,500.4688c3.2172,0,3.2226-5,0-5-3.2173,0-3.2226,5,0,5Z"/></g><g class="bfc2a7bd-e54c-4e31-8cc9-4d65ee1d72f5"><path class="a2ee5916-1ad6-44a7-8a73-34e6afcb514d" d="M945.2712,543.7712c3.2172,0,3.2226-5,0-5-3.2173,0-3.2226,5,0,5Z"/></g><g class="bfc2a7bd-e54c-4e31-8cc9-4d65ee1d72f5"><path class="a2ee5916-1ad6-44a7-8a73-34e6afcb514d" d="M942.6468,416.4885c3.2173,0,3.2226-5,0-5-3.2173,0-3.2226,5,0,5Z"/></g><g class="bfc2a7bd-e54c-4e31-8cc9-4d65ee1d72f5"><path class="a7239781-9ffc-4c44-aab5-26a78010bf4f" d="M985.9492,581.8248c3.2172,0,3.2225-5,0-5-3.2173,0-3.2226,5,0,5Z"/></g><path class="a3b76055-8d60-45c5-ab88-516943592294" d="M911.61,561.8107l-1.3122-1.3122a2.5792,2.5792,0,0,0-1.7678-.7322,2.5441,2.5441,0,0,0-1.7678.7322,2.5157,2.5157,0,0,0-.7322,1.7678,2.6059,2.6059,0,0,0,.7322,1.7677l1.3122,1.3122a2.5793,2.5793,0,0,0,1.7678.7323,2.5442,2.5442,0,0,0,1.7678-.7323,2.5156,2.5156,0,0,0,.7322-1.7677,2.6061,2.6061,0,0,0-.7322-1.7678Z"/><g class="f60c001a-614f-4455-b83d-16324c6c2cc2"><path class="a7239781-9ffc-4c44-aab5-26a78010bf4f" d="M987.2613,451.9177c3.2173,0,3.2226-5,0-5-3.2172,0-3.2225,5,0,5Z"/></g><g class="f60c001a-614f-4455-b83d-16324c6c2cc2"><path class="a7239781-9ffc-4c44-aab5-26a78010bf4f" d="M961.0175,530.6493c3.2173,0,3.2226-5,0-5-3.2173,0-3.2226,5,0,5Z"/></g><g class="f60c001a-614f-4455-b83d-16324c6c2cc2"><path class="a7239781-9ffc-4c44-aab5-26a78010bf4f" d="M930.8371,433.547c3.2172,0,3.2226-5,0-5-3.2173,0-3.2226,5,0,5Z"/></g><g class="f60c001a-614f-4455-b83d-16324c6c2cc2"><path class="a7239781-9ffc-4c44-aab5-26a78010bf4f" d="M917.7151,361.3764c3.2173,0,3.2226-5,0-5-3.2172,0-3.2225,5,0,5Z"/></g><g class="f60c001a-614f-4455-b83d-16324c6c2cc2"><path class="a7239781-9ffc-4c44-aab5-26a78010bf4f" d="M917.7151,361.3764c3.2173,0,3.2226-5,0-5-3.2172,0-3.2225,5,0,5Z"/></g><g class="f60c001a-614f-4455-b83d-16324c6c2cc2"><path class="a7239781-9ffc-4c44-aab5-26a78010bf4f" d="M917.7151,361.3764c3.2173,0,3.2226-5,0-5-3.2172,0-3.2225,5,0,5Z"/></g><g class="f60c001a-614f-4455-b83d-16324c6c2cc2"><path class="a7239781-9ffc-4c44-aab5-26a78010bf4f" d="M988.5735,399.43c3.2173,0,3.2226-5,0-5-3.2172,0-3.2226,5,0,5Z"/></g><g class="f60c001a-614f-4455-b83d-16324c6c2cc2"><path class="a7239781-9ffc-4c44-aab5-26a78010bf4f" d="M1050.2466,462.4153c3.2172,0,3.2226-5,0-5-3.2173,0-3.2226,5,0,5Z"/></g><g class="f60c001a-614f-4455-b83d-16324c6c2cc2"><path class="a7239781-9ffc-4c44-aab5-26a78010bf4f" d="M1048.9344,462.4153c3.2173,0,3.2226-5,0-5-3.2173,0-3.2226,5,0,5Z"/></g><g class="f60c001a-614f-4455-b83d-16324c6c2cc2"><path class="a7239781-9ffc-4c44-aab5-26a78010bf4f" d="M1047.6222,461.1031c3.2173,0,3.2226-5,0-5-3.2173,0-3.2226,5,0,5Z"/></g><g class="f60c001a-614f-4455-b83d-16324c6c2cc2"><path class="a7239781-9ffc-4c44-aab5-26a78010bf4f" d="M928.2127,589.6979c3.2172,0,3.2226-5,0-5-3.2173,0-3.2226,5,0,5Z"/></g><g class="f60c001a-614f-4455-b83d-16324c6c2cc2"><path class="a7239781-9ffc-4c44-aab5-26a78010bf4f" d="M926.9005,589.6979c3.2173,0,3.2226-5,0-5-3.2173,0-3.2226,5,0,5Z"/></g><g class="f60c001a-614f-4455-b83d-16324c6c2cc2"><path class="a7239781-9ffc-4c44-aab5-26a78010bf4f" d="M926.9005,589.6979c3.2173,0,3.2226-5,0-5-3.2173,0-3.2226,5,0,5Z"/></g></svg>